<svg class="placeholder-svg" xmlns="http://www.w3.org/2000/svg" viewBox="0 0 525.5 525.5"><path d="M271.9 192.7c-.5-3.8-3.7-6.1-8.6-6.1-4.9 0-8 2.3-8.6 6.1-66.9 5.7-76 78.9-77.2 102-.1 2 .8 3.7 2.5 4.8 1.1.7 2.3.9 3.5.7v29.4c0 2.8 1.4 5.5 3.7 7.1 2.3 1.6 5.1 2 7.8 1.1 6-2.1 12.1-5.7 18.6-9.4 13.3-7.8 28.4-16.5 48.9-16.5 21.2 0 34.9 8.5 47 16 7.3 4.5 14.2 8.8 21.9 10.7.7.2 1.4.2 2 .2 1.9 0 3.7-.6 5.2-1.8 2.1-1.7 3.4-4.2 3.4-6.9v-29.9c.2 0 .5.1.7.1.9 0 1.9-.3 2.8-.8 1.7-1 2.6-2.8 2.5-4.8-1.2-23-10.2-96.1-76.1-102zm-8.6-3c1.8 0 4.7.4 5.5 2.8-1.8-.1-3.6-.2-5.5-.2h-.1c-1.8 0-3.6.1-5.4.2.8-2.4 3.7-2.8 5.5-2.8zM339 330.1c0 1.8-.8 3.4-2.2 4.5-1.4 1.1-3.1 1.4-4.7 1-7.2-1.8-13.9-5.9-21-10.3-12.5-7.7-26.6-16.4-48.6-16.4-21.3 0-36.7 9-50.4 16.9-6.3 3.7-12.3 7.2-18.1 9.2-1.7.6-3.5.3-5-.7-1.5-1.1-2.4-2.8-2.4-4.7v-29.9c0-.2-.1-.5-.2-.7 10.6-5.8 34.1-15 76.4-15 42.3 0 65.7 9.1 76.4 15-.1.2-.2.4-.2.7v30.4zm4.9-33.1c-.7.4-1.6.5-2.3 0-2.3-1.3-5.4-2.9-9.2-4.4.6-2.3 1.1-4.7 1.6-7.1.1-.4-.2-.8-.6-.9-.4-.1-.8.2-.9.6-.4 2.3-.9 4.6-1.5 6.8-13.3-5.3-35.1-10.9-68.3-10.9-33.2 0-55 5.6-68.2 10.9-.6-2.6-1.2-5.2-1.7-7.8-.1-.4-.5-.7-.9-.6-.4.1-.7.5-.6.9.5 2.7 1.1 5.5 1.8 8.1-3.8 1.6-6.8 3.1-9.2 4.5-.7.4-1.6.4-2.3 0-.7-.4-1.1-1.2-1.1-2 .5-9.1 2.2-26.3 8.4-43.8-.1 3.7-.1 7.5 0 11.2 0 .4.3.7.8.7.4 0 .7-.4.7-.8-.2-5.3-.1-10.6.2-15.8.6-1.5 1.2-2.9 1.8-4.4-.9 9.5-1.5 26.8 2.5 46 .1.4.4.6.7.6h.2c.4-.1.7-.5.6-.9-4.8-22.5-3-42.4-2-49.9 11.3-22.5 31.6-42.4 68-42.6v83c0 .4.3.8.8.8.4 0 .8-.3.8-.8v-83h1.5v4.4c0 .4.3.8.8.8.4 0 .8-.3.8-.8v-4.4c33.8 1.3 53 20.5 63.9 42.1 1 7.1 2.9 27.4-2 50.4-.1.4.2.8.6.9h.2c.3 0 .7-.2.7-.6 4.2-19.5 3.5-37.1 2.5-46.5.7 1.5 1.3 2.9 1.9 4.4.3 4.7.4 9.5.3 14.3 0 .4.3.8.7.8.4 0 .7-.3.8-.7.1-3.3 0-6.5-.1-9.7 6.2 17.6 7.9 34.9 8.4 44.1 0 .8-.4 1.6-1.1 2.1z"/><path d="M295.5 203.8c-2.3 0-4.1 1.8-4.1 4.1s1.8 4.1 4.1 4.1 4.1-1.8 4.1-4.1c0-2.2-1.9-4.1-4.1-4.1zm0 6.7c-1.4 0-2.6-1.2-2.6-2.6 0-1.4 1.2-2.6 2.6-2.6s2.6 1.2 2.6 2.6c0 1.4-1.2 2.6-2.6 2.6zm-64.4-6.7c-2.3 0-4.1 1.8-4.1 4.1s1.8 4.1 4.1 4.1 4.1-1.8 4.1-4.1c0-2.2-1.8-4.1-4.1-4.1zm0 6.7c-1.4 0-2.6-1.2-2.6-2.6 0-1.4 1.2-2.6 2.6-2.6s2.6 1.2 2.6 2.6c0 1.4-1.2 2.6-2.6 2.6zm105.3 90.7c-.4 0-.8.3-.8.8v24.8c0 1.6-.8 3-2.1 3.9-1.3.9-2.9 1-4.3.4-2.2-.9-4.6-2.1-7.2-3.6-.4-.2-.8-.1-1 .3-.2.4-.1.8.3 1 2.7 1.5 5.1 2.7 7.4 3.7.8.3 1.6.5 2.3.5 1.2 0 2.3-.3 3.4-1 1.7-1.1 2.8-3.1 2.8-5.1v-24.8c-.1-.6-.4-.9-.8-.9zm-19.8 23c-1-.6-2-1.2-3-1.9-2.5-1.5-5.1-3.1-7.8-4.7-.4-.2-.8-.1-1 .3-.2.4-.1.8.3 1 2.7 1.5 5.3 3.1 7.8 4.7 1 .6 2 1.2 3 1.9.1.1.3.1.4.1.3 0 .5-.1.6-.4.2-.3.1-.8-.3-1zm-14.6-8.6c-9.1-4.9-21.9-10.5-39.9-10.5-22.3 0-38.6 9.4-53.1 17.6-4.4 2.5-8.5 4.9-12.5 6.8-1.4.7-3.1.6-4.4-.2-1.4-.9-2.2-2.3-2.2-3.9v-23.5c0-.4-.3-.8-.8-.8-.4 0-.8.3-.8.8v23.5c0 2.1 1.1 4.1 2.9 5.2 1 .6 2.1.9 3.2.9.9 0 1.8-.2 2.6-.6 4.1-2 8.2-4.3 12.6-6.9 14.3-8.2 30.4-17.4 52.3-17.4 17.7 0 30.3 5.5 39.2 10.3.4.2.8.1 1-.3.4-.3.3-.8-.1-1z"/><path d="M192.7 309.8c.4 0 .8-.3.8-.8v-9.1c0-.4-.3-.8-.8-.8-.4 0-.8.3-.8.8v9.1c0 .4.4.8.8.8zm1.1 14.8c.6.4 1.4.6 2.1.6.6 0 1.1-.1 1.7-.4 3-1.4 5.9-3 8.6-4.4.4-.2.5-.7.3-1-.2-.4-.7-.5-1-.3-2.7 1.5-5.7 3-8.6 4.4-.8.4-1.6.3-2.3-.1-.7-.5-1.1-1.2-1.1-2.1v-7.7c0-.4-.3-.8-.8-.8-.4 0-.8.3-.8.8v7.7c0 1.3.7 2.6 1.9 3.3zm15.8-6.1c.1 0 .2 0 .4-.1 2.4-1.3 4.8-2.6 7.3-3.9.4-.2.5-.6.3-1s-.6-.5-1-.3c-2.5 1.3-5 2.6-7.3 3.9-.4.2-.5.7-.3 1 0 .2.3.4.6.4zm12.4-6.4c9.7-4.6 23-10 40.2-10 23.1 0 38 8.6 51.1 16.2 5 2.9 9.8 5.6 14.7 7.7.5.2 1 .3 1.6.3.8 0 1.5-.2 2.2-.7 1.1-.7 1.8-2 1.8-3.3v-22.5c0-.4-.3-.8-.8-.8s-.8.3-.8.8v22.5c0 .8-.4 1.6-1.1 2-.7.5-1.6.5-2.3.2-4.8-2.1-9.5-4.8-14.5-7.7-13.3-7.7-28.4-16.4-51.9-16.4-17.5 0-31 5.4-40.8 10.1-.4.2-.5.6-.4 1 .2.6.7.8 1 .6zm44.3-107.8c-.4 0-.8.3-.8.8v23.7c0 .4.3.8.8.8.4 0 .8-.3.8-.8v-23.7c0-.5-.4-.8-.8-.8zm-6 61c-.4 0-.8.3-.8.8v8.9c0 .4.3.8.8.8.4 0 .8-.3.8-.8v-9c-.1-.4-.4-.7-.8-.7zm0-21.5c-.4 0-.8.3-.8.8v15.3c0 .4.3.8.8.8.4 0 .8-.3.8-.8v-15.3c-.1-.4-.4-.8-.8-.8zm75.3 23c-.4 0-.8.3-.8.7-.3 3.8-.7 7.6-1.2 11.4-.1.4.2.8.6.9h.1c.4 0 .7-.3.7-.6.5-3.8 1-7.6 1.2-11.5.1-.5-.2-.9-.6-.9zm-145.6.3c-.4 0-.7.4-.7.8.3 3.5.6 7.1 1.1 10.6.1.4.4.6.7.6h.1c.4-.1.7-.4.6-.9-.5-3.4-.9-7-1.1-10.5 0-.4-.4-.7-.7-.6z"/></svg>