<svg class="placeholder-svg" xmlns="http://www.w3.org/2000/svg" viewBox="0 0 525.5 525.5"><path d="M322 329.7c.7 2.2 1.2 4.4 1.6 6.7 2.1 11 .4 22.4-4.8 32.9-.2.4 0 .8.3 1 .1.1.2.1.3.1.3 0 .5-.1.6-.4 5.4-10.8 7.1-22.5 4.9-33.8-.4-2.3-1-4.6-1.6-6.8-3.6-12.3-10.7-24.8-18.9-33.5-.3-.3-.7-.3-1 0-.3.3-.3.7 0 1 8.1 8.5 15.1 20.8 18.6 32.8z"/><path d="M366.1 118.8h-95.2c-.7-3.9-4.1-6.9-8.2-6.9s-7.5 3-8.2 6.9h-95.2c-.8 0-1.4.6-1.4 1.4v115.5c0 .8.6 1.4 1.4 1.4h95.1v10.3h-11.3c-2.8 0-5.1 2.3-5.1 5.1v.4c0 2.6 2.1 4.8 4.7 5l-24.9 30.3c-1.3 1.6-2.7 3.2-4.1 4.8l-.5.6c-9.1 10.3-15.5 21.3-18.9 32.7-.8 2.5-1.4 5.1-1.8 7.7-5.1 27 9.6 54.9 37.5 71.2 1.3 3.3 4.3 8.4 8.5 8.4h48.6c4.1 0 7.2-5.1 8.5-8.4 27.8-16.3 42.5-44.2 37.5-71.2-.5-2.5-1.1-5.1-1.9-7.7-3.4-11.4-9.7-22.4-18.9-32.7l-.5-.5c-1.4-1.6-2.8-3.2-4.1-4.8L282.8 258c2.6-.2 4.7-2.4 4.7-5v-.4c0-2.8-2.3-5.1-5.1-5.1h-11.3v-10.3h42.6c0 .1-.1.2-.1.3v19.3c-1.3 2.2-5.6 10-5.6 13.1 0 3.9 3.2 7.1 7.1 7.1 3.9 0 7.1-3.2 7.1-7.1 0-3.2-4.4-10.9-5.6-13.1v-19.3c0-.1 0-.2-.1-.3h49.8c.8 0 1.4-.6 1.4-1.4V120.2c-.2-.8-.8-1.4-1.6-1.4zM315 274.1c-2.3 0-4.2-1.9-4.2-4.2 0-1.4 1.7-5.1 3.5-8.4.2.1.5.3.8.3.3 0 .5-.1.8-.3 1.8 3.4 3.5 7.1 3.5 8.4-.2 2.3-2.1 4.2-4.4 4.2zm-52.2-159.3c2.5 0 4.6 1.7 5.2 4h-10.5c.6-2.3 2.7-4 5.3-4zm-30.3 288.9c-.1-.3-.4-.6-.7-.8-27-15.7-41.4-42.6-36.5-68.5.5-2.4 1.1-4.9 1.8-7.4 3.2-11 9.4-21.6 18.3-31.6l.5-.5 4.2-4.8 26.4-32.1h15v4h-11.4c-.2 0-.4.1-.5.3L221 295.9c-8.2 8.7-15.3 21.2-18.9 33.4-.7 2.3-1.2 4.5-1.6 6.8-4.5 23.9 8.6 48.7 33.4 63.2 1 2.7 3.7 7.3 7.1 7.3h13.4v4.1h-16c-2.1 0-4.7-3.6-5.9-7zm35.7 1.5h-11v-2.4h11v2.4zm0 1.4v4.1h-11v-4.1h11zm-12.4-6.6c-.8 0-1.4.6-1.4 1.4v3.8H241c-2.3 0-4.7-3.4-5.9-6.6-.1-.2-.2-.3-.3-.4-24.4-14.1-37.3-38.4-32.9-61.8.4-2.2 1-4.4 1.6-6.7 3.6-12.1 10.5-24.3 18.6-32.9l28.1-33.4h11.1V400h-5.5zm53.9-105.1.5.5c8.9 10 15 20.7 18.3 31.6.7 2.5 1.3 5 1.8 7.4 4.9 25.9-9.5 52.8-36.6 68.5-.3.2-.5.4-.6.8-1.2 3.4-3.8 7-6 7h-16v-4.1h13.4c3.4 0 6.1-4.7 7.1-7.3 8.6-5 15.8-11.2 21.5-18.5.2-.3.2-.8-.1-1-.3-.2-.8-.2-1 .1-5.6 7.2-12.8 13.3-21.4 18.2-.1.1-.3.2-.3.4-1.1 3.2-3.6 6.6-5.9 6.6H271v-3.8c0-.8-.6-1.4-1.4-1.4h-5.5V263.4h11.1l20.4 24.2c.3.3.7.3 1 .1.3-.3.3-.7.1-1l-20.6-24.5c-.1-.2-.3-.3-.5-.3h-11.4v-4h14.9l26.4 32.1c1.3 1.7 2.8 3.3 4.2 4.9zm-25.1-42.4v.4c0 1.2-1 2.2-2.2 2.2h-39.3c-1.2 0-2.2-1-2.2-2.2v-.4c0-1.2 1-2.2 2.2-2.2h39.3c1.2 0 2.2.9 2.2 2.2zm-16.4-15.3v10.2h-11v-10.3l11 .1zm96.5-2.9H184.8v-33.4c0-.4-.3-.7-.7-.7s-.7.3-.7.7v33.4h-10.6v-68.4c0-.4-.3-.7-.7-.7-.4 0-.7.3-.7.7v68.4h-10.5V121.7h10.5V155c0 .4.3.7.7.7.4 0 .7-.3.7-.7v-33.3h22.7V147c0 .4.3.7.7.7s.7-.3.7-.7v-25.3h167.8v112.6z"/><path d="M196.1 161.7c-.4 0-.7.3-.7.7v61.4c0 .4.3.7.7.7s.7-.3.7-.7v-61.4c0-.4-.3-.7-.7-.7zm-12-26.4c-.4 0-.7.3-.7.7v52.3c0 .4.3.7.7.7s.7-.3.7-.7V136c0-.4-.3-.7-.7-.7z"/></svg>